<svg xmlns="http://www.w3.org/2000/svg" width="134" height="15" fill="none"><g fill="#231F20" clip-path="url(#a)"><path d="M31.44.298v9.425q.003.564-.068 1.123-.056.462-.195.904a2.7 2.7 0 0 1-.349.73 4.5 4.5 0 0 1-.526.64c-.341.3-.743.527-1.178.668a5.3 5.3 0 0 1-1.75.275 5.7 5.7 0 0 1-1.654-.236 3.7 3.7 0 0 1-1.259-.668 2.5 2.5 0 0 1-.663-.758 3.2 3.2 0 0 1-.298-.904 6 6 0 0 1-.074-.948V.298h-3.375v9.089a7.6 7.6 0 0 0 .32 2.211c.248.749.73 1.401 1.379 1.864.715.532 1.523.93 2.385 1.173.93.263 1.893.394 2.86.388.852.015 1.7-.107 2.512-.36a4.7 4.7 0 0 0 1.665-.903 4.3 4.3 0 0 0 .703-.803q.27-.416.418-.887.155-.51.2-1.039.052-.56.052-1.28V.298zM55.656 14.618V.303h-1.07l-6.178 10.492L41.406.348l-.034-.045h-1.07v14.292h1.058V6.388l5.618 8.207h.423l4.874-8.398v8.42zM94.305.303v10.262L83.865.303h-1.03v14.292h1.087V5.097l10.325 9.875.035.028h1.11V.303zM114.149 13.933v.662h-12.287l.005-.78 7.889-12.85h-7.076V.303h10.863l-.011.78-7.861 12.85zM133.697 13.933 127.404 0h-1.264l-5.784 13.933-.269.663h1.007l.281-.663 1.55-3.677h5.515l1.601 3.677.281.663h3.672zm-10.503-4.345.114-.252 2.317-5.564 2.414 5.564.109.252zM11.47.303v10.262L1.03.303H0v14.292h1.087V5.097l10.326 9.875.028.028h1.11V.303zM75.804 13.94v.667H64.231V.977v.005-.668h10.967v.668L67.612.977V6.87l5.818.006v.662h-5.818v6.4z"/></g><defs><clipPath id="a"><path fill="#fff" d="M0 0h134v15H0z"/></clipPath></defs></svg>